<svg data-v-5f19e91b="" xmlns="http://www.w3.org/2000/svg" width="535" height="62" viewBox="0 0 535 62"><!----> <!----> <!----> <g data-v-5f19e91b="" id="9195d380-890b-e94e-365c-9cbcd1d4abf9" fill="black" transform="matrix(6.085192321084519,0,0,6.085192321084519,91.2791197049302,-21.38065820879396)"><path d="M0.49 13.30L3.81 13.30L3.81 12.89C2.90 12.82 2.56 12.78 2.48 12.19C2.41 11.73 2.38 11.20 2.38 10.46L2.38 4.87L2.41 4.87C4.41 7.69 6.40 10.49 8.37 13.30L9.30 13.30L9.30 6.45C9.30 5.71 9.32 5.18 9.39 4.72C9.48 4.13 9.81 4.07 10.54 4.02L10.54 3.61L7.22 3.61L7.22 4.02C8.13 4.09 8.47 4.13 8.55 4.72C8.62 5.18 8.65 5.71 8.65 6.45L8.65 11.37L8.62 11.34C6.79 8.76 4.97 6.19 3.16 3.61L0.48 3.61L0.48 4.02C1.71 4.10 1.74 4.13 1.74 4.91L1.74 10.46C1.74 11.20 1.71 11.73 1.64 12.19C1.55 12.78 1.22 12.84 0.49 12.89ZM11.19 9.93C11.19 12.14 12.14 13.47 14.42 13.47C15.97 13.47 16.77 12.60 17.15 11.49L16.73 11.27C16.34 12.08 15.81 12.75 14.70 12.75C12.96 12.75 12.61 11.07 12.64 9.62L16.67 9.62C16.97 9.62 17.23 9.55 17.23 9.09C17.23 8.26 16.97 6.27 14.41 6.27C12.22 6.27 11.19 7.83 11.19 9.93ZM12.66 9.09C12.66 8.51 12.87 6.76 14.32 6.76C15.62 6.76 15.78 8.09 15.78 8.64C15.78 8.90 15.69 9.09 15.30 9.09ZM17.67 6.85C18.24 6.87 18.42 6.92 18.59 7.45C19.18 9.30 19.80 11.19 20.38 13.30L21.45 13.30L23.10 7.97L23.14 7.97C23.73 9.74 24.30 11.52 24.86 13.30L25.93 13.30C26.52 11.24 27.34 8.75 27.69 7.66C27.93 6.94 28.08 6.89 28.78 6.85L28.78 6.44L26.03 6.44L26.03 6.85L26.82 6.92C27.06 6.94 27.08 7.13 27.02 7.38C26.84 8.20 26.19 10.47 25.76 12.05L25.73 12.05C25.13 10.23 24.56 8.43 23.98 6.61L22.92 6.61L21.29 12.05L21.27 12.05C20.76 10.44 20.33 8.82 19.88 7.31C19.80 7.04 19.88 6.92 20.13 6.89L20.62 6.85L20.62 6.44L17.67 6.44ZM29.11 10.96L29.25 12.80C29.75 13.24 30.60 13.47 31.43 13.47C33.10 13.47 34.05 12.59 34.05 11.40C34.05 10.16 33.29 9.60 31.85 9.16C31.28 8.97 30.35 8.68 30.35 7.90C30.35 7.17 30.91 6.76 31.61 6.76C32.61 6.76 33.08 7.53 33.18 8.39L33.59 8.39L33.59 6.75C33.12 6.41 32.41 6.27 31.78 6.27C30.27 6.27 29.23 6.99 29.23 8.32C29.23 9.48 30.18 10.00 31.35 10.35C31.98 10.54 32.86 10.86 32.86 11.82C32.86 12.53 32.30 12.98 31.56 12.98C30.42 12.98 29.79 12.15 29.51 10.96ZM35.59 10.28L39.02 10.28L39.02 9.30L35.59 9.30ZM40.53 13.30L44.44 13.30L44.44 12.89C43.22 12.81 43.18 12.78 43.18 12.00L43.18 8.53L48.08 8.53L48.08 12.00C48.08 12.78 48.05 12.81 46.82 12.89L46.82 13.30L50.72 13.30L50.72 12.89C49.50 12.81 49.46 12.78 49.46 12.00L49.46 4.91C49.46 4.13 49.50 4.10 50.72 4.02L50.72 3.61L46.82 3.61L46.82 4.02C48.05 4.10 48.08 4.13 48.08 4.91L48.08 7.99L43.18 7.99L43.18 4.91C43.18 4.13 43.22 4.10 44.44 4.02L44.44 3.61L40.53 3.61L40.53 4.02C41.76 4.10 41.79 4.13 41.79 4.91L41.79 12.00C41.79 12.78 41.76 12.81 40.53 12.89ZM51.21 6.97L51.74 7.04C52.11 7.10 52.19 7.17 52.19 7.67L52.19 11.37C52.19 12.98 53.14 13.47 54.18 13.47C55.37 13.47 56.34 12.66 56.74 12.46L56.88 13.30L59.12 13.30L59.12 12.89C58.16 12.82 58.07 12.80 58.07 12.08L58.07 6.36L57.97 6.27L55.78 6.62L55.78 6.97L56.31 7.04C56.67 7.10 56.76 7.17 56.76 7.67L56.76 10.82C56.76 11.21 56.71 11.52 56.64 11.66C56.32 12.31 55.65 12.71 54.92 12.71C54.11 12.71 53.51 12.21 53.51 11.12L53.51 6.36L53.41 6.27L51.21 6.62ZM59.78 13.30L63.20 13.30L63.20 12.89C62.20 12.82 62.15 12.80 62.15 12.08L62.15 8.81C62.15 8.46 62.17 8.26 62.29 8.04C62.58 7.49 63.21 7.03 63.95 7.03C64.90 7.03 65.42 7.56 65.42 8.78L65.42 12.08C65.42 12.80 65.38 12.82 64.37 12.89L64.37 13.30L67.79 13.30L67.79 12.89C66.79 12.82 66.74 12.80 66.74 12.08L66.74 8.50C66.74 7.08 65.97 6.27 64.68 6.27C63.64 6.27 63.00 6.78 62.13 7.34L61.94 6.27L59.85 6.62L59.85 6.97L60.38 7.04C60.75 7.10 60.83 7.17 60.83 7.67L60.83 12.08C60.83 12.80 60.79 12.82 59.78 12.89ZM68.43 7.00L69.44 7.00L69.44 11.87C69.44 13.30 70.50 13.47 70.99 13.47C71.71 13.47 72.38 13.10 72.79 12.85L72.67 12.56C72.34 12.70 72.03 12.74 71.68 12.74C71.20 12.74 70.76 12.40 70.76 11.34L70.76 7.00L72.56 7.00L72.56 6.44L70.76 6.44L70.76 4.68L70.35 4.68L69.50 6.44L68.43 6.44Z"></path></g> <!----> <g data-v-5f19e91b="" id="637607e7-10fd-f843-9e21-a65ee7cb04e0" transform="matrix(0.8244444105360244,0,0,0.8244444105360244,-3.222220443089789,-10.32221950319088)" stroke="none" fill="black"><path d="M91.8,21.8H81.6v-5.7c0-1.7-1.5-3.2-3.3-3.2H8.1c-1.7,0-3.1,1.5-3.1,3.2v61.1c0,5.4,4.5,9.9,9.9,9.9h70.2  c5.4-0.1,9.9-4.4,9.9-9.9V24.9C95,23.2,93.6,21.8,91.8,21.8L91.8,21.8z M14.9,80.6c-1.9,0-3.4-1.5-3.4-3.4V19.4h63.7v57.8  c0,1.1,0.2,2.3,0.6,3.4H14.9z M88.5,77.2c0,1.9-1.5,3.4-3.5,3.4c-1.9,0-3.5-1.5-3.5-3.4v-49h7V77.2z M45.5,54.7h23.2v-5.7H45.5V54.7  z M45.5,69.5h23.2v-5.7H45.5V69.5z M17.8,28.6V40h50.9V28.6H17.8z M17.8,69.5h21.5V49.1H17.8V69.5z"></path></g></svg>