<svg data-v-1084b650="" xmlns="http://www.w3.org/2000/svg" viewBox="0 0 300 300"><!----> <!----> <rect data-v-1084b650="" fill="#ffffff" x="0" y="0" width="300px" height="300px" class="logo-background-square"></rect> <!----> <linearGradient data-v-1084b650="" gradientTransform="rotate(25)" id="cd07fcb7-292c-f887-fe5c-44b907b4ee76" x1="0%" y1="0%" x2="100%" y2="0%"><stop data-v-1084b650="" offset="0%" style="stop-color: rgb(0, 102, 120); stop-opacity: 1;"></stop> <stop data-v-1084b650="" offset="100%" style="stop-color: rgb(79, 168, 255); stop-opacity: 1;"></stop></linearGradient> <g data-v-1084b650="" id="8484ee2e-4e12-1379-a1ce-f452ac8b2ff2" fill="url(#cd07fcb7-292c-f887-fe5c-44b907b4ee76)" stroke="none" transform="matrix(0.7999999999999998,0,0,0.7999999999999998,29.999998474121114,30.000006103515645)"><svg xmlns="http://www.w3.org/2000/svg" xmlns:xlink="http://www.w3.org/1999/xlink" version="1.1" x="0px" y="0px" viewBox="0 0 100 100" enable-background="new 0 0 100 100" xml:space="preserve"><path d="M91.8,21.8H81.6v-5.7c0-1.7-1.5-3.2-3.3-3.2H8.1c-1.7,0-3.1,1.5-3.1,3.2v61.1c0,5.4,4.5,9.9,9.9,9.9h70.2  c5.4-0.1,9.9-4.4,9.9-9.9V24.9C95,23.2,93.6,21.8,91.8,21.8L91.8,21.8z M14.9,80.6c-1.9,0-3.4-1.5-3.4-3.4V19.4h63.7v57.8  c0,1.1,0.2,2.3,0.6,3.4H14.9z M88.5,77.2c0,1.9-1.5,3.4-3.5,3.4c-1.9,0-3.5-1.5-3.5-3.4v-49h7V77.2z M45.5,54.7h23.2v-5.7H45.5V54.7  z M45.5,69.5h23.2v-5.7H45.5V69.5z M17.8,28.6V40h50.9V28.6H17.8z M17.8,69.5h21.5V49.1H17.8V69.5z"></path></svg></g></svg>